# xmcd
#
# Track frame offsets:
#	150
#	18007
#	36372
#	55662
#	56460
#	56900
#	59187
#	59620
#	60042
#
# Disc length: 825
#
# Revision: 1
# Processed by: cddbd v1.5.1PL0 Copyright (c) Steve Scherf et al.
# Submitted via: ExactAudioCopy v0.95a3
# Normalized: r0:TDELIM( - )
#
DISCID=7b033709
DTITLE=Various Artist - A Platinum Christmas! Holiday Sampler
DYEAR=1999
DGENRE=R&B
TTITLE0=Tyrese - I Can't Go On
TTITLE1=Coko (Duet With Tyrese) - If This World Were Mine
TTITLE2=SWV - Have Yourself A Merry Little Christmas
TTITLE3=Tyrese - Platinum Christmas
TTITLE4=Tyrese - Merry Christmas, Happy New Year
TTITLE5=Tyrese - Countdown
TTITLE6=Coko - Much Love
TTITLE7=Coko - Sunshine
TTITLE8=Tyrese and Coko - Christmas ID Duet
EXTD=
EXTT0=
EXTT1=
EXTT2=
EXTT3=
EXTT4=
EXTT5=
EXTT6=
EXTT7=
EXTT8=
PLAYORDER=
